<svg xmlns="http://www.w3.org/2000/svg" xml:space="preserve" style="fill-rule:evenodd;clip-rule:evenodd;stroke-linejoin:round;stroke-miterlimit:2"
     viewBox="0 0 37 37">
    <style>
        #circle { fill: #ffffff; }
        #text { fill: #0d0d0d; fill-rule: nonzero; }
    </style>
    <path id="circle" d="M37 18.5C37 28.71 28.71 37 18.5 37S0 28.71 0 18.5 8.29 0 18.5 0 37 8.29 37 18.5Z" />
    <path id="text" d="M12.443 24.432c-1.221 0-2.169-.26-2.844-.778-.676-.519-1.014-1.265-1.014-2.239 0-.084.004-.18.012-.287.008-.107.026-.258.055-.452s.072-.458.13-.793h3.174c-.053.309-.091.539-.114.691a5.821 5.821 0 0 0-.044.322 1.954 1.954 0 0 0-.007.15c0 .309.079.539.239.691.16.152.392.228.695.228.351 0 .639-.108.865-.322.225-.215.374-.543.448-.982l1.343-8.093h3.127l-1.336 8.03c-.204 1.231-.704 2.177-1.5 2.84-.796.662-1.873.994-3.229.994ZM22.523 24.385c-.891 0-1.641-.152-2.251-.456-.611-.304-1.052-.735-1.324-1.293-.273-.557-.346-1.216-.22-1.975l.856-5.17h3.159l-.818 4.95c-.047.282-.034.527.04.734a.914.914 0 0 0 .369.479c.173.113.38.169.621.169.246 0 .472-.056.679-.169.207-.112.381-.272.523-.479.141-.207.235-.452.283-.734l.817-4.95h3.158l-.856 5.17a4.124 4.124 0 0 1-.873 1.975 4.485 4.485 0 0 1-1.752 1.293c-.712.304-1.516.456-2.411.456Z"/>
</svg>